# xmcd
#
# Track frame offsets: 
#        150
#        18011
#        35180
#        48210
#        64308
#        82359
#        98052
#        114231
#        132914
#        147303
#        162807
#        178353
#        195600
#        211942
#        226808
#        239573
#        253678
#        268319
#        281259
#        296279
#        311741
#        324998
#        342199
#
# Disc length: 4771 seconds
#
# Revision: 0
# Processed by: cddbd v1.5.2PL0 Copyright (c) Steve Scherf et al.
# Submitted via: ExactAudioCopy v0.99pb5
#
DISCID=5612a117
DTITLE=Various Artist - Dream Dance Vol.52 [CD1)
DYEAR=2010
DGENRE=Dance
TTITLE0=Dream Dance Alliance - These Walls
TTITLE1=Groove Coverage - Innocent
TTITLE2=Topmodelz - Take Me Home Tonight
TTITLE3=Money-G - Schwerelos
TTITLE4=Rocco and Bass-T - Players In A Frame
TTITLE5=Megasonic - Experience 2K10 (Brooklyn Bounce S-Style Remix)
TTITLE6=Mike Nero - Keep The Fire Burning
TTITLE7=Lolita - Joli Garcon
TTITLE8=Crystal - Listen To My Heart Cry
TTITLE9=DJ Fait - I'm Ok
TTITLE10=Raindropz! Vs Le Click - Tonight Is The Night 2K10
TTITLE11=Ryan Riva - This Could Be Love (Axel Coon Remix)
TTITLE12=Apollo - I Can Wait
TTITLE13=Colina - Farben
TTITLE14=Nalin and Kane - Beachball (DBN Remix Edit)
TTITLE15=Pulsedriver - Lookout Weekend
TTITLE16=Darius and Finlay Feat. Nicco - Hold On
TTITLE17=PH Electro - Englishman In New York
TTITLE18=Picco - Venga
TTITLE19=Other Ego - Love The Way You Lie (David May Remix)
TTITLE20=KCB and Timmy Trumpet - Tromba Ye Ye Ye
TTITLE21=Laserkraft 3D - Nein, Mann!
TTITLE22=Lazee Feat. Mohombi - Do It (Jay Frog's Remix)
EXTD=
EXTT0=
EXTT1=
EXTT2=
EXTT3=
EXTT4=
EXTT5=
EXTT6=
EXTT7=
EXTT8=
EXTT9=
EXTT10=
EXTT11=
EXTT12=
EXTT13=
EXTT14=
EXTT15=
EXTT16=
EXTT17=
EXTT18=
EXTT19=
EXTT20=
EXTT21=
EXTT22=
PLAYORDER=
